<svg xmlns="http://www.w3.org/2000/svg" xmlns:xlink="http://www.w3.org/1999/xlink" version="1.1" x="0px" y="0px" viewBox="0 0 32 40" enable-background="new 0 0 32 32" xml:space="preserve"><g><path d="M30.079,8.021c-1.167-1.968-4.116-2.525-8.303-1.564c-0.538,0.124-0.875,0.66-0.751,1.198s0.659,0.873,1.198,0.751   c3.125-0.717,5.477-0.474,6.136,0.636c1.204,2.029-2.758,7.455-9.86,11.68c-2.586,1.537-5.222,2.708-7.632,3.406   C9.117,22.659,8,20.458,8,18c0-4.411,3.589-8,8-8c3.181,0,6.06,1.884,7.334,4.8c0.221,0.506,0.811,0.738,1.316,0.516   c0.506-0.221,0.737-0.811,0.516-1.317c-1.593-3.645-5.19-6-9.166-6C10.486,8,6,12.486,6,18c0,2.56,0.975,4.89,2.563,6.661   c-2.571,0.429-4.448,0.108-5.024-0.863c-0.648-1.082,0.202-3.197,2.217-5.521c0.362-0.417,0.317-1.049-0.1-1.411   c-0.418-0.362-1.049-0.317-1.411,0.1c-2.719,3.135-3.58,5.926-2.425,7.855c0.791,1.333,2.426,2.024,4.706,2.024   c0.728,0,1.521-0.071,2.374-0.213c0.499-0.083,1.016-0.198,1.54-0.327C12.03,27.375,13.943,28,16,28c4.05,0,7.67-2.417,9.224-6.157   c0.212-0.51-0.03-1.095-0.54-1.307c-0.512-0.212-1.096,0.03-1.308,0.54C22.134,24.067,19.239,26,16,26   c-0.999,0-1.951-0.192-2.833-0.528c2.07-0.748,4.231-1.77,6.354-3.031C26.37,18.367,32.397,11.929,30.079,8.021z"/><path d="M3,8c1.103,0,2,0.897,2,2c0,0.552,0.448,1,1,1s1-0.448,1-1c0-1.103,0.897-2,2-2c0.552,0,1-0.448,1-1S9.552,6,9,6   C7.897,6,7,5.103,7,4c0-0.552-0.448-1-1-1S5,3.448,5,4c0,1.103-0.897,2-2,2C2.448,6,2,6.448,2,7S2.448,8,3,8z M6,6.643   C6.111,6.77,6.23,6.889,6.357,7C6.23,7.111,6.111,7.23,6,7.357C5.889,7.23,5.77,7.111,5.643,7C5.77,6.889,5.889,6.77,6,6.643z"/></g><text x="0" y="47" fill="#000000" font-size="5px" font-weight="bold" font-family="'Helvetica Neue', Helvetica, Arial-Unicode, Arial, Sans-serif">Created by Binpodo</text><text x="0" y="52" fill="#000000" font-size="5px" font-weight="bold" font-family="'Helvetica Neue', Helvetica, Arial-Unicode, Arial, Sans-serif">from the Noun Project</text></svg>