<svg xmlns="http://www.w3.org/2000/svg" xmlns:xlink="http://www.w3.org/1999/xlink" version="1.1" x="0px" y="0px" viewBox="0 0 48 60" style="enable-background:new 0 0 48 48;" xml:space="preserve"><g><path d="M22.4,8.8c-8.8,0-15.9,7.1-15.9,15.9c0,8.8,7.1,15.9,15.9,15.9s15.9-7.1,15.9-15.9C38.3,15.9,31.2,8.8,22.4,8.8z    M22.4,38.6c-7.7,0-13.9-6.2-13.9-13.9s6.2-13.9,13.9-13.9S36.3,17,36.3,24.7S30.1,38.6,22.4,38.6z"/><path d="M22.4,15.3c-5.2,0-9.4,4.2-9.4,9.4c0,1,0.2,2.1,0.5,3c-0.6,0.8-0.9,1.8-0.9,2.8c0,2.7,2.2,4.9,4.9,4.9   c1.4,0,2.7-0.6,3.6-1.5c0.4,0.1,0.8,0.1,1.3,0.1c5.2,0,9.4-4.2,9.4-9.4C31.8,19.5,27.6,15.3,22.4,15.3z M17.6,33.5   c-1.6,0-2.9-1.3-2.9-2.9c0-1.6,1.3-2.9,2.9-2.9s2.9,1.3,2.9,2.9C20.5,32.2,19.2,33.5,17.6,33.5z M22.4,32.1c-0.1,0-0.1,0-0.2,0   c0.2-0.5,0.3-1,0.3-1.5c0-2.7-2.2-4.9-4.9-4.9c-0.9,0-1.7,0.2-2.4,0.6c-0.1-0.5-0.2-1-0.2-1.6c0-4.1,3.3-7.4,7.4-7.4   s7.4,3.3,7.4,7.4C29.8,28.8,26.5,32.1,22.4,32.1z"/><path d="M44.7,22.5C43.6,11.1,34,2.3,22.4,2.3c-3.3,0-6.6,0.7-9.6,2.2c-1-2.1-3.2-3.5-5.7-3.5c-3.5,0-6.3,2.8-6.3,6.3   c0,2.2,1.1,4.1,2.8,5.2C1.3,16.1,0,20.3,0,24.7C0,37,10,47.1,22.4,47.1c10.1,0,18.8-6.7,21.5-16.3c2.3-0.1,4.1-1.9,4.1-4.2   C48,24.6,46.6,22.9,44.7,22.5z M2.9,7.2c0-2.4,1.9-4.3,4.3-4.3s4.3,1.9,4.3,4.3s-1.9,4.3-4.3,4.3S2.9,9.6,2.9,7.2z M22.4,45.1   C11.1,45.1,2,35.9,2,24.7c0-4.1,1.2-8,3.5-11.4c0.5,0.1,1.1,0.2,1.7,0.2c3.5,0,6.3-2.8,6.3-6.3c0-0.3,0-0.5-0.1-0.8   c2.8-1.4,5.9-2.1,9-2.1c10.5,0,19.2,8,20.3,18.3c-1.8,0.5-3.1,2.1-3.1,4c0,1.7,1,3.1,2.4,3.8C39.5,39.1,31.5,45.1,22.4,45.1z    M43.8,28.8c-1.2,0-2.2-1-2.2-2.2c0-1.2,1-2.2,2.2-2.2s2.2,1,2.2,2.2C46,27.8,45,28.8,43.8,28.8z"/></g><text x="0" y="63" fill="#000000" font-size="5px" font-weight="bold" font-family="'Helvetica Neue', Helvetica, Arial-Unicode, Arial, Sans-serif">Created by Vectors Market</text><text x="0" y="68" fill="#000000" font-size="5px" font-weight="bold" font-family="'Helvetica Neue', Helvetica, Arial-Unicode, Arial, Sans-serif">from the Noun Project</text></svg>